:SAMPLES-PER-SECOND 30
:FULLY-SPECIFIED
:DEGREES
235
root  5.96912 33.5109 -12.8597 16.03 -49.8156 -11.2714
RightUpLeg  -3.23203 -9.01646 3.65204
RightLeg  14.3235 -1.01703 -0.190815
RightFoot  -5.09468 -0.0115049 0.298476
RightToes  -26.9732 -0.123643 -0.230388
Spine  -2.46041 6.4895 -6.4094
Spine1  -5.56516 13.0609 -12.5573
HEad  -49.2759 -22.0129 14.2222
LeftShoulder1  -1.94126e-019 -3.10601e-018 -2.51263e-017
LeftArm  -29.9062 36.9272 -59.4314
LeftForeArm  16.0058 -9.52596 -1.67362
LeftHand  -0.35539 2.2345 12.8939
RightShoulder  -4.96962e-017 0 -2.36833e-017
RightArm  -37.8761 66.2155 70.4815
RightForeArm  70.6156 40.2316 5.45856
RightHand  -0.607215 -1.51798 -18.0718
LeftUpLeg  -27.6782 -0.0539972 19.6573
LeftLeg  34.6313 14.3861 8.46891
LeftFoot  -2.72237 -0.0196614 -0.665878
LeftToes  -15.0482 1.87998e-006 4.79886e-008
236
root  5.91029 33.2137 -11.6123 14.9539 -45.5334 -8.93564
RightUpLeg  -3.82836 -10.2512 1.76606
RightLeg  17.8391 -4.08979 -1.03107
RightFoot  -7.43071 0.0135397 0.780438
RightToes  -27.921 -0.12987 -0.23726
Spine  -2.00307 7.97071 -7.3305
Spine1  -5.11084 16.1866 -14.6903
HEad  -52.3046 -29.2734 17.6775
LeftShoulder1  -1.94126e-019 -3.10601e-018 -2.51263e-017
LeftArm  -27.9787 36.9945 -57.6325
LeftForeArm  17.7279 -8.46268 -1.48378
LeftHand  -0.363193 2.21617 13.11
RightShoulder  -4.96962e-017 0 -2.36833e-017
RightArm  -38.0389 66.3925 62.3834
RightForeArm  69.0382 21.547 3.13089
RightHand  -0.498859 -1.67912 -15.4679
LeftUpLeg  -28.8982 -5.29768 19.2356
LeftLeg  30.2297 12.3694 6.10447
LeftFoot  8.83137 -0.170301 2.36666
LeftToes  -32.479 1.87998e-006 4.79886e-008
237
root  5.82145 32.9626 -10.3257 13.8206 -41.503 -6.90581
RightUpLeg  -4.2368 -11.6156 -0.0588143
RightLeg  22.171 -7.36622 -2.45638
RightFoot  -8.37317 0.0594433 1.40405
RightToes  -30.2257 -0.145478 -0.253531
Spine  -1.24348 9.50633 -8.05115
Spine1  -4.09713 19.391 -16.3654
HEad  -56.724 -35.985 21.1492
LeftShoulder1  -1.94126e-019 -3.10601e-018 -2.51263e-017
LeftArm  -25.2844 35.9101 -55.4023
LeftForeArm  19.6504 -7.19665 -1.2588
LeftHand  -0.364301 2.41034 13.9931
RightShoulder  -4.96962e-017 0 -2.36833e-017
RightArm  -34.6752 64.127 58.574
RightForeArm  59.9498 8.72267 1.50332
RightHand  -0.183759 -2.41505 -6.79887
LeftUpLeg  -31.9058 -5.20682 16.3813
LeftLeg  35.3712 8.87605 5.43591
LeftFoot  3.12006 -0.0171002 0.789439
LeftToes  -29.4379 1.87998e-006 4.79886e-008
238
root  5.8498 32.9546 -9.15962 13.1595 -36.1537 -3.96416
RightUpLeg  -6.57566 -15.7004 -2.41443
RightLeg  28.483 -9.57235 -4.39906
RightFoot  -6.25318 0.0483161 1.4995
RightToes  -36.619 -0.192053 -0.295238
Spine  -0.446754 10.4113 -8.77919
Spine1  -3.02035 21.4715 -18.0397
HEad  -61.2991 -41.0763 23.4845
LeftShoulder1  -1.94126e-019 -3.10601e-018 -2.51263e-017
LeftArm  -24.618 33.9066 -53.3722
LeftForeArm  21.1954 -6.47804 -1.13349
LeftHand  -0.32399 2.76658 14.0589
RightShoulder  -4.96962e-017 0 -2.36833e-017
RightArm  -33.0823 59.8192 60.7614
RightForeArm  53.9278 2.62226 0.43706
RightHand  -0.0149274 -6.44853 -1.98668
LeftUpLeg  -34.108 -5.07072 12.8058
LeftLeg  35.9208 4.42528 2.78032
LeftFoot  1.93722 -0.0046705 0.437794
LeftToes  -29.106 1.87998e-006 4.79886e-008
239
root  5.71406 33.0471 -8.06604 13.9551 -30.678 -3.34908
RightUpLeg  -9.2087 -19.1858 -2.30846
RightLeg  35.1543 -12.3091 -7.44458
RightFoot  -1.69654 0.00298082 0.911076
RightToes  -40.3135 -0.220992 -0.316886
Spine  0.386927 10.9448 -8.49648
Spine1  -1.65742 22.9777 -17.6324
HEad  -64.8527 -43.9184 23.3178
LeftShoulder1  -1.94126e-019 -3.10601e-018 -2.51263e-017
LeftArm  -27.8521 33.0561 -53.1314
LeftForeArm  22.1571 -6.89832 -1.20761
LeftHand  -0.328847 2.78126 14.3575
RightShoulder  -4.96962e-017 0 -2.36833e-017
RightArm  -31.8423 54.3671 65.5587
RightForeArm  56.8276 0.861413 0.124527
RightHand  0.0356536 -7.43163 -4.04206
LeftUpLeg  -34.7432 -5.49694 11.347
LeftLeg  34.8072 0.689255 0.41072
LeftFoot  0.377524 -0.000476491 0.30629
LeftToes  -29.1001 1.87998e-006 4.79886e-008
240
root  5.44554 33.2021 -7.05192 14.7115 -25.4877 -3.48984
RightUpLeg  -12.0536 -22.8404 -0.969381
RightLeg  41.6107 -14.6372 -11.1554
RightFoot  0.191078 -0.00172487 0.589162
RightToes  -20.8589 -0.0862981 -0.183692
Spine  1.63959 11.354 -7.76328
Spine1  0.537584 24.378 -16.3009
HEad  -68.3698 -45.5798 22.5399
LeftShoulder1  -1.94126e-019 -3.10601e-018 -2.51263e-017
LeftArm  -28.7699 32.0103 -53.9403
LeftForeArm  19.5035 -8.1223 -1.42443
LeftHand  -0.338518 2.74469 14.5926
RightShoulder  -4.96962e-017 0 -2.36833e-017
RightArm  -29.7407 48.5122 70.0561
RightForeArm  61.0648 2.70258 0.435318
RightHand  -0.0687817 -4.71601 -8.67182
LeftUpLeg  -35.1657 -9.85237 11.9564
LeftLeg  34.5708 0.308622 0.179205
LeftFoot  -0.550111 0.000501304 0.341912
LeftToes  -29.9334 1.87998e-006 4.79886e-008
241
root  5.09962 33.3908 -6.09613 15.3411 -20.721 -3.37779
RightUpLeg  -14.9231 -25.3452 0.537016
RightLeg  45.351 -13.8109 -12.017
RightFoot  -0.689964 -3.13848e-005 0.991817
RightToes  -18.9411 -0.0756347 -0.168254
Spine  2.83799 11.5876 -6.96918
Spine1  2.73516 25.3427 -14.8128
HEad  -71.5551 -46.8957 21.8843
LeftShoulder1  -1.94126e-019 -3.10601e-018 -2.51263e-017
LeftArm  -28.6034 30.6459 -55.1488
LeftForeArm  17.6208 -9.09894 -1.59873
LeftHand  -0.332671 2.67256 13.9546
RightShoulder  -4.96962e-017 0 -2.36833e-017
RightArm  -24.2346 43.431 73.9089
RightForeArm  63.1533 4.75477 0.785129
RightHand  -0.275088 -3.08907 -13.4086
LeftUpLeg  -34.905 -13.5763 12.5886
LeftLeg  33.1277 -0.408981 -0.236019
LeftFoot  -0.988618 0.0019603 0.388646
LeftToes  -30.6194 1.87998e-006 4.79886e-008
242
root  4.68086 33.5873 -5.21023 16.3209 -17.0838 -3.32452
RightUpLeg  -18.8596 -26.5579 2.3859
RightLeg  47.2991 -10.7145 -10.0771
RightFoot  -1.22978 0.00311996 1.11958
RightToes  -20.717 -0.0854915 -0.182562
Spine  3.60518 11.6873 -6.30277
Spine1  4.27048 25.784 -13.4905
HEad  -73.1982 -47.832 20.8866
LeftShoulder1  -1.94126e-019 -3.10601e-018 -2.51263e-017
LeftArm  -28.2102 29.5896 -56.495
LeftForeArm  18.0171 -9.91931 -1.74342
LeftHand  -0.350375 2.32268 13.0652
RightShoulder  -4.96962e-017 0 -2.36833e-017
RightArm  -20.5597 39.9299 77.7892
RightForeArm  66.3867 5.25557 0.864677
RightHand  -0.331477 -2.86535 -14.8692
LeftUpLeg  -34.3876 -15.7922 13.2266
LeftLeg  31.2363 -1.23299 -0.648058
LeftFoot  -1.35825 0.00144899 0.421931
LeftToes  -29.9819 1.87998e-006 4.79886e-008
243
root  4.27482 33.7467 -4.39824 17.8125 -14.6329 -3.06741
RightUpLeg  -24.1643 -27.1208 4.22054
RightLeg  48.5668 -8.63672 -8.54389
RightFoot  -1.93564 0.00811823 1.22008
RightToes  -22.3907 -0.0951833 -0.195761
Spine  3.81931 11.5754 -5.90789
Spine1  4.75909 25.625 -12.7125
HEad  -74.1494 -48.0663 19.939
LeftShoulder1  -1.94126e-019 -3.10601e-018 -2.51263e-017
LeftArm  -26.4228 29.5375 -57.8094
LeftForeArm  18.4849 -12.1494 -2.14476
LeftHand  -0.359047 2.11395 12.5604
RightShoulder  -4.96962e-017 0 -2.36833e-017
RightArm  -19.2614 36.898 82.0949
RightForeArm  66.5674 5.18689 0.851141
RightHand  -0.373797 -2.1057 -12.9996
LeftUpLeg  -34.1602 -17.5315 13.86
LeftLeg  29.0973 -1.29677 -0.620511
LeftFoot  -1.61106 0.00207737 0.420145
LeftToes  -29.2691 1.87998e-006 4.79886e-008
244
root  3.82818 33.8656 -3.55134 19.0112 -13.0387 -2.9482
RightUpLeg  -29.2794 -28.366 5.99023
RightLeg  48.8276 -8.02243 -8.02385
RightFoot  -2.75912 0.015708 1.34637
RightToes  -22.4931 -0.0945011 -0.196559
Spine  3.91722 11.3813 -5.54049
Spine1  5.11468 25.2014 -11.9387
HEad  -74.7294 -48.1477 19.5418
LeftShoulder1  -1.94126e-019 -3.10601e-018 -2.51263e-017
LeftArm  -24.9553 29.6592 -59.485
LeftForeArm  19.7154 -14.3287 -2.54049
LeftHand  -0.362488 1.99392 12.2456
RightShoulder  -4.96962e-017 0 -2.36833e-017
RightArm  -16.5112 34.285 85.863
RightForeArm  67.2786 4.82108 0.787076
RightHand  -0.308235 -1.71625 -9.57175
LeftUpLeg  -33.5055 -19.4041 14.6644
LeftLeg  27.3154 -0.5728 -0.254741
LeftFoot  -2.06004 0.00395946 0.381696
LeftToes  -28.7226 1.87998e-006 4.79886e-008
245
root  3.32628 33.9602 -2.64712 19.7194 -12.2398 -2.97366
RightUpLeg  -33.8575 -29.8167 7.8307
RightLeg  47.9157 -8.37315 -8.10553
RightFoot  -3.62039 0.0263426 1.50453
RightToes  -21.5343 -0.089448 -0.189043
Spine  3.96835 11.1581 -5.15389
Spine1  5.45778 24.6339 -11.0577
HEad  -75.8325 -48.1696 20.2493
LeftShoulder1  -1.94126e-019 -3.10601e-018 -2.51263e-017
LeftArm  -24.9125 29.6126 -61.663
LeftForeArm  21.4367 -16.1089 -2.86863
LeftHand  -0.37893 1.71322 11.8596
RightShoulder  -4.96962e-017 0 -2.36833e-017
RightArm  -12.6876 31.7503 88.7435
RightForeArm  68.0627 4.62768 0.752078
RightHand  -0.281994 -0.749413 -7.01233
LeftUpLeg  -31.8965 -20.2961 15.0766
LeftLeg  25.6041 -0.0903567 -0.040172
LeftFoot  -2.66933 0.00407536 0.336402
LeftToes  -28.1275 1.87998e-006 4.79886e-008
246
root  2.79415 34.0215 -1.73298 20.3962 -12.2757 -3.00508
RightUpLeg  -38.6539 -31.2306 10.1199
RightLeg  46.0445 -8.72802 -7.90989
RightFoot  -3.97203 0.0298739 1.52221
RightToes  -20.616 -0.0849192 -0.181757
Spine  3.83998 10.7737 -4.8238
Spine1  5.49691 23.643 -10.2255
HEad  -76.6087 -47.6037 20.7203
LeftShoulder1  -1.94126e-019 -3.10601e-018 -2.51263e-017
LeftArm  -24.6295 29.7924 -64.0656
LeftForeArm  21.5235 -17.5901 -3.13516
LeftHand  -0.374771 1.5265 11.1773
RightShoulder  -4.96962e-017 0 -2.36833e-017
RightArm  -9.12181 28.6825 91.066
RightForeArm  67.7265 5.37458 0.883943
RightHand  -0.302354 0.18071 -6.3551
LeftUpLeg  -30.0131 -20.8472 15.2825
LeftLeg  24.0223 0.790954 0.289661
LeftFoot  -3.38043 0.00257636 0.248802
LeftToes  -27.1523 1.87998e-006 4.79886e-008
247
root  2.20392 34.0321 -0.78731 20.9653 -12.8 -3.0482
RightUpLeg  -43.5216 -32.898 13.124
RightLeg  43.3094 -8.06745 -6.65509
RightFoot  -3.94052 0.0236093 1.33263
RightToes  -20.2882 -0.0830712 -0.179136
Spine  3.64987 10.1766 -4.4685
Spine1  5.45265 22.1779 -9.30759
HEad  -77.2179 -46.502 21.1515
LeftShoulder1  -1.94126e-019 -3.10601e-018 -2.51263e-017
LeftArm  -24.5086 29.7372 -66.651
LeftForeArm  21.3262 -18.4801 -3.28732
LeftHand  -0.381587 1.22699 10.5923
RightShoulder  -4.96962e-017 0 -2.36833e-017
RightArm  -5.23896 25.3824 92.5641
RightForeArm  68.3722 7.00936 1.16945
RightHand  -0.377222 1.21061 -6.76819
LeftUpLeg  -27.8485 -20.7961 15.1983
LeftLeg  22.7024 1.58251 0.542121
LeftFoot  -4.28546 -0.000798782 0.140151
LeftToes  -26.099 1.87998e-006 4.79886e-008
248
root  1.57771 33.9903 0.18953 21.2726 -13.7725 -2.93942
RightUpLeg  -47.8889 -33.9499 16.3838
RightLeg  39.2525 -6.67092 -4.76929
RightFoot  -3.26096 0.00973351 0.97585
RightToes  -21.7051 -0.0911665 -0.190388
Spine  3.4071 9.50196 -4.16797
Spine1  5.25307 20.5523 -8.51192
HEad  -77.5577 -45.1613 21.1667
LeftShoulder1  -1.94126e-019 -3.10601e-018 -2.51263e-017
LeftArm  -23.7677 29.4967 -68.942
LeftForeArm  21.0156 -19.858 -3.53282
LeftHand  -0.38579 1.00324 10.185
RightShoulder  -4.96962e-017 0 -2.36833e-017
RightArm  -0.790598 22.1241 92.9227
RightForeArm  67.0908 8.85311 1.45199
RightHand  -0.510593 2.10702 -8.08894
LeftUpLeg  -25.3481 -19.8746 14.5254
LeftLeg  21.7306 2.0257 0.656754
LeftFoot  -5.34412 -0.00571512 0.0390472
LeftToes  -25.0943 1.87998e-006 4.79886e-008
